<?xml version="1.0" standalone="no"?>
<!DOCTYPE svg PUBLIC "-//W3C//DTD SVG 20010904//EN"
 "http://www.w3.org/TR/2001/REC-SVG-20010904/DTD/svg10.dtd">
<svg version="1.0" xmlns="http://www.w3.org/2000/svg"
 width="32.000000pt" height="32.000000pt" viewBox="0 0 300.000000 300.000000"
 preserveAspectRatio="xMidYMid meet">
<metadata>
Created by potrace 1.10, written by Peter Selinger 2001-2011
</metadata>
<g transform="translate(0.000000,300.000000) scale(0.100000,-0.100000)"
fill="#FFFFFF" stroke="none">
<path d="M2166 2399 c-65 -15 -158 -71 -216 -129 l-56 -56 -46 47 c-180 181
-502 137 -633 -86 -98 -168 -53 -402 98 -518 31 -23 36 -24 87 -15 67 13 81
23 44 32 -43 11 -112 66 -145 115 -91 137 -73 306 43 417 73 71 119 89 223 89
78 0 97 -4 140 -27 65 -34 128 -100 157 -163 34 -74 32 -190 -3 -265 -14 -31
-41 -73 -58 -93 -37 -41 -152 -102 -162 -85 -4 6 -21 3 -45 -10 -22 -11 -66
-28 -98 -37 -31 -9 -55 -19 -53 -22 13 -12 129 -20 187 -12 125 17 237 95 291
202 l19 37 75 0 c130 0 237 34 318 101 31 26 36 34 25 46 -22 27 -93 71 -132
81 -35 10 -42 8 -87 -21 -27 -18 -49 -36 -49 -40 0 -15 64 4 83 24 10 11 24
19 31 19 14 0 96 -67 96 -79 0 -20 -127 -64 -195 -68 -38 -3 -79 -8 -90 -13
-34 -15 -98 -30 -107 -24 -4 3 -4 14 2 24 5 10 10 58 10 107 0 77 -4 96 -30
151 -36 75 -36 76 -10 60 15 -10 22 -10 32 0 36 36 64 0 72 -91 2 -32 10 -65
17 -73 8 -10 9 -35 5 -84 -4 -39 -5 -70 -2 -70 2 0 10 26 16 57 9 43 10 74 1
126 l-11 69 64 66 c90 95 120 132 104 132 -18 -1 -131 -108 -155 -148 l-20
-33 -18 43 c-9 24 -19 48 -22 54 -5 13 73 71 139 103 26 12 48 27 50 32 2 7
20 4 47 -7 l43 -17 -4 -81 c-3 -59 -11 -93 -28 -126 -13 -25 -25 -39 -27 -32
-3 6 -12 12 -20 12 -23 0 -83 -68 -83 -93 1 -19 6 -17 39 20 32 35 45 42 82
45 42 3 44 4 62 53 20 53 34 196 23 239 -5 22 -11 26 -44 25 -20 -1 -54 -5
-76 -10z"/>
<path d="M2157 2245 c-55 -70 -125 -200 -114 -211 9 -9 57 43 57 61 0 6 25 51
55 99 31 49 54 93 52 99 -2 6 -25 -16 -50 -48z"/>
<path d="M1530 2172 c0 -21 -7 -32 -25 -40 -33 -15 -60 -72 -51 -107 9 -36 47
-69 95 -84 52 -15 76 -38 60 -57 -18 -21 -71 -17 -123 11 l-47 25 3 -47 c3
-47 4 -48 46 -63 36 -12 42 -18 42 -42 0 -25 3 -28 35 -28 32 0 35 2 35 30 0
23 5 31 25 36 56 14 83 93 49 143 -9 13 -45 36 -80 52 -47 21 -64 33 -64 48 0
30 32 34 94 12 l56 -19 0 43 c0 46 -10 55 -57 55 -21 0 -24 4 -21 28 3 25 0
27 -34 30 -36 3 -38 2 -38 -26z"/>
<path d="M736 2038 c-22 -32 -20 -55 9 -83 21 -22 33 -25 104 -25 l79 0 27
-117 c74 -323 84 -357 101 -370 25 -19 972 -19 997 0 9 6 43 82 75 168 33 86
65 167 72 179 11 20 10 22 -5 16 -10 -4 -48 -12 -85 -18 l-66 -11 -41 -111
-40 -111 -406 -3 -405 -2 -17 77 c-73 333 -94 416 -106 424 -8 5 -73 9 -146 9
-125 0 -133 -1 -147 -22z m258 -21 c15 -12 34 -79 71 -252 9 -44 21 -91 25
-105 5 -14 11 -41 14 -61 4 -20 18 -47 32 -60 l25 -24 395 -1 c459 -1 425 -9
470 109 15 39 36 85 47 100 24 36 53 32 49 -6 -4 -41 -71 -210 -91 -230 -17
-18 -46 -19 -471 -21 -348 -1 -456 1 -470 11 -10 7 -25 41 -34 75 -30 115 -67
273 -72 308 -14 84 -46 109 -137 110 -53 0 -69 3 -74 16 -11 30 23 43 117 42
51 0 95 -5 104 -11z"/>
<path d="M2118 1973 c-20 -2 -42 -11 -50 -20 -12 -15 -6 -16 65 -9 84 7 107
13 107 27 0 9 -49 9 -122 2z"/>
<path d="M2191 1922 c-35 -12 -56 -13 -93 -5 -39 8 -46 7 -37 -4 15 -18 110
-17 154 1 19 8 35 17 35 20 0 8 -7 6 -59 -12z"/>
<path d="M1156 1355 c-55 -29 -75 -83 -52 -139 18 -42 51 -66 94 -66 101 0
151 106 85 180 -34 38 -85 48 -127 25z m93 -47 c43 -39 13 -118 -44 -118 -14
0 -37 11 -51 25 -60 60 33 152 95 93z"/>
<path d="M1873 1356 c-70 -32 -82 -130 -22 -180 46 -39 101 -36 145 8 28 28
34 42 34 75 0 80 -82 131 -157 97z m97 -51 c11 -10 20 -31 20 -47 0 -64 -80
-92 -119 -42 -27 35 -26 59 3 89 27 27 66 27 96 0z"/>
<path d="M850 1048 c-60 -31 -90 -77 -90 -141 0 -62 28 -111 81 -137 37 -19
62 -20 744 -20 767 0 743 -2 797 56 54 59 54 141 1 205 -52 61 -27 59 -791 59
l-698 0 -44 -22z m1023 -22 c10 10 387 3 409 -7 19 -8 20 -9 3 -6 -11 2 -33
-2 -49 -8 -20 -9 -40 -9 -66 -3 -28 7 -45 6 -66 -5 -22 -11 -36 -12 -54 -5
-14 6 -71 12 -126 14 -97 4 -103 3 -125 -20 l-23 -24 -29 22 c-21 15 -41 20
-75 19 -26 -1 -52 3 -59 9 -9 7 -20 6 -36 -5 -17 -11 -34 -13 -58 -8 -32 7
-160 6 -339 -4 -41 -2 -84 -4 -95 -4 -23 -1 -79 4 -150 14 -73 10 -93 -10 -96
-98 -1 -37 -5 -67 -9 -67 -33 0 -41 100 -12 136 41 49 38 49 537 54 259 3 480
2 491 -2 12 -4 24 -4 27 -2z m-262 -57 c8 -16 8 -27 -2 -45 -15 -29 -33 -32
-24 -5 3 11 1 22 -4 26 -7 4 -6 13 2 25 15 25 14 25 28 -1z m-642 -9 c14 -7
18 -22 19 -65 0 -64 -11 -75 -77 -75 l-41 0 0 75 0 75 41 0 c22 0 48 -4 58
-10z m81 -39 c0 -56 19 -82 45 -61 10 8 15 30 15 61 0 37 4 49 15 49 12 0 15
-13 15 -59 0 -51 -3 -62 -22 -75 -32 -22 -55 -20 -83 9 -20 19 -25 34 -25 75
0 43 3 50 20 50 17 0 20 -7 20 -49z m150 41 c0 -5 6 -17 14 -27 14 -19 15 -19
27 8 12 26 14 27 95 27 70 0 82 -2 78 -15 -4 -9 -19 -15 -40 -15 -24 0 -34 -5
-34 -15 0 -10 11 -15 35 -15 24 0 35 -5 35 -15 0 -10 -11 -15 -35 -15 -25 0
-35 -4 -35 -16 0 -12 9 -15 38 -12 28 2 37 -1 37 -12 0 -12 -13 -15 -55 -15
l-55 0 3 68 c2 38 0 67 -6 67 -17 0 -62 -79 -62 -111 0 -24 -4 -30 -17 -27
-13 2 -17 11 -15 30 2 18 -7 43 -28 73 l-31 45 26 0 c14 0 25 -4 25 -8z m334
-8 c19 -18 20 -38 5 -65 -8 -16 -7 -25 5 -38 21 -23 20 -31 -4 -31 -12 0 -25
10 -32 25 -6 14 -19 25 -28 25 -13 0 -16 -6 -12 -25 3 -20 0 -25 -17 -25 -20
0 -21 5 -21 75 l0 75 44 0 c27 0 51 -6 60 -16z m201 -4 c0 -11 -9 -14 -34 -12
-24 3 -32 0 -29 -10 3 -7 13 -15 24 -17 24 -4 54 -30 54 -47 0 -8 -11 -21 -25
-30 -38 -25 -116 -1 -87 28 7 7 17 6 32 -2 14 -8 26 -8 32 -2 6 6 -4 16 -29
28 -43 21 -52 44 -27 68 21 22 89 18 89 -4z m185 5 c0 -10 -11 -15 -35 -15
-24 0 -35 -5 -35 -15 0 -10 10 -15 30 -15 20 0 30 -5 30 -15 0 -10 -10 -15
-30 -15 -21 0 -30 -5 -30 -16 0 -13 7 -15 35 -11 30 5 35 3 35 -14 0 -16 -7
-19 -55 -19 l-55 0 0 75 0 75 55 0 c42 0 55 -3 55 -15z m131 -16 c16 -17 29
-25 29 -18 0 38 71 64 109 40 21 -14 3 -32 -25 -25 -14 4 -31 1 -39 -6 -21
-18 -19 -57 4 -70 27 -14 41 -13 41 5 0 8 -7 15 -15 15 -8 0 -15 7 -15 15 0
10 10 15 30 15 28 0 30 -2 30 -39 0 -35 -3 -40 -28 -46 -38 -8 -79 9 -87 36
-7 21 -7 21 -29 -6 -16 -20 -33 -28 -69 -32 l-47 -6 0 77 0 76 41 0 c33 0 47
-6 70 -31z m279 16 c0 -10 -11 -15 -35 -15 -24 0 -35 -5 -35 -15 0 -10 10 -15
30 -15 20 0 30 -5 30 -15 0 -10 -10 -15 -30 -15 -21 0 -30 -5 -30 -16 0 -13 7
-15 35 -10 31 6 35 4 35 -14 0 -18 -6 -20 -55 -20 l-55 0 0 75 0 75 55 0 c42
0 55 -3 55 -15z m46 -82 c-3 -8 -10 -12 -15 -9 -12 8 -11 58 3 75 9 12 12 8
14 -18 2 -18 1 -40 -2 -48z m-776 -20 c0 -9 10 -27 22 -40 l21 -23 -41 0 c-40
0 -54 11 -32 25 6 3 10 17 10 31 0 13 5 24 10 24 6 0 10 -8 10 -17z m-407 -54
c4 -16 1 -18 -21 -13 -35 9 -37 11 -23 28 15 18 37 11 44 -15z m607 0 c0 -5
-11 -9 -25 -9 -26 0 -35 25 -12 33 13 5 37 -10 37 -24z"/>
<path d="M910 925 c0 -11 7 -15 23 -13 12 2 22 8 22 13 0 6 -10 11 -22 13 -16
2 -23 -2 -23 -13z"/>
<path d="M910 871 c0 -23 33 -30 45 -10 8 13 6 15 -22 23 -19 6 -23 3 -23 -13z"/>
<path d="M1460 920 c0 -17 5 -21 28 -18 16 2 27 9 27 18 0 9 -11 16 -27 18
-23 3 -28 -1 -28 -18z"/>
<path d="M1970 895 c0 -51 16 -59 50 -25 29 29 10 69 -32 70 -15 0 -18 -9 -18
-45z"/>
</g>
</svg>
