<?xml version="1.0" standalone="no"?>
<!DOCTYPE svg PUBLIC "-//W3C//DTD SVG 20010904//EN"
 "http://www.w3.org/TR/2001/REC-SVG-20010904/DTD/svg10.dtd">
<svg version="1.0" xmlns="http://www.w3.org/2000/svg"
 width="32.000000pt" height="32.000000pt" viewBox="0 0 285.000000 300.000000"
 preserveAspectRatio="xMidYMid meet">
<metadata>
Created by potrace 1.10, written by Peter Selinger 2001-2011
</metadata>
<g transform="translate(0.000000,300.000000) scale(0.100000,-0.100000)"
fill="#000000" stroke="none" >
<path d="M2378 2879 c-124 -29 -274 -122 -374 -233 l-68 -76 -31 38 c-61 75
-112 115 -202 158 -296 143 -622 69 -818 -186 -54 -70 -69 -100 -102 -202 -22
-69 -27 -101 -27 -188 0 -181 56 -321 179 -445 113 -114 94 -107 214 -82 l104
22 -85 42 c-180 90 -288 269 -288 480 0 166 92 333 237 429 209 138 478 110
657 -70 94 -94 156 -238 156 -361 0 -201 -119 -400 -285 -479 -41 -20 -87 -39
-102 -42 -25 -7 -27 -6 -14 9 7 10 12 17 9 17 -2 0 -48 -20 -103 -45 -55 -24
-130 -52 -167 -62 -37 -10 -68 -20 -68 -24 0 -13 121 -32 210 -32 185 1 319
56 453 187 59 57 92 99 113 142 l29 61 145 5 c163 6 246 26 358 82 68 35 187
121 187 136 0 13 -114 109 -153 129 -21 10 -61 24 -90 30 -46 10 -55 9 -72 -7
-10 -9 -46 -33 -79 -52 -34 -19 -61 -38 -61 -42 0 -23 87 10 142 54 23 18 45
27 55 24 25 -8 153 -128 153 -144 0 -6 5 -12 11 -12 5 0 7 -5 3 -11 -5 -8 -9
-8 -14 1 -5 8 -28 2 -82 -24 -104 -49 -172 -65 -294 -67 -58 -1 -102 -5 -97
-9 11 -11 223 -17 223 -7 0 4 4 5 10 2 5 -3 19 -1 31 5 15 9 24 9 32 1 6 -6 7
-12 1 -12 -5 -1 -21 -3 -36 -4 -15 -2 -35 -8 -45 -13 -18 -9 -119 -19 -258
-24 -59 -2 -74 -7 -92 -27 -13 -13 -23 -28 -23 -33 0 -14 -27 -38 -34 -30 -4
3 -4 -1 0 -11 3 -9 1 -17 -4 -17 -6 0 -14 -9 -17 -20 -11 -33 -142 -160 -165
-160 -6 0 -10 -4 -10 -9 0 -12 -109 -54 -190 -75 -66 -16 -160 -18 -160 -4 0
15 112 58 148 57 21 -1 62 10 94 25 31 14 62 26 67 26 6 0 11 5 11 10 0 6 6
10 13 10 15 0 127 103 127 117 0 4 11 20 25 35 14 15 25 31 25 36 0 5 12 31
26 56 15 26 24 50 21 53 -4 3 0 21 8 40 15 35 22 194 11 242 -23 101 -103 253
-149 286 -12 8 -18 15 -13 15 5 0 -9 12 -30 26 -21 15 -41 29 -44 33 -19 23
-147 81 -203 92 -74 14 -223 4 -287 -19 -85 -31 -141 -58 -133 -65 3 -4 2 -7
-3 -7 -16 0 -105 -79 -134 -119 -31 -42 -92 -157 -96 -181 -22 -112 -25 -145
-20 -205 7 -81 45 -207 59 -198 6 3 7 1 3 -5 -14 -23 124 -202 155 -202 6 0 7
-5 4 -10 -4 -6 -3 -9 2 -8 13 4 53 -22 53 -33 0 -7 -17 -9 -43 -7 -36 4 -53
14 -105 64 -34 33 -62 63 -62 66 0 3 -15 29 -34 56 -46 69 -76 173 -83 290 -5
83 -2 108 17 172 31 101 65 171 102 209 17 17 27 31 23 31 -4 0 4 11 18 24 14
13 23 27 19 32 -4 4 1 4 11 1 10 -4 16 -3 13 2 -3 5 2 15 11 22 14 12 16 12 8
0 -5 -10 -4 -12 3 -7 7 4 12 13 12 20 0 14 157 96 195 101 6 1 17 5 25 8 81
32 265 21 380 -24 44 -17 78 -34 76 -38 -3 -4 4 -8 15 -8 25 -2 99 -61 156
-124 48 -52 78 -56 112 -13 10 13 24 24 30 24 6 0 21 -24 34 -52 31 -67 34
-81 42 -148 3 -30 13 -81 22 -113 15 -56 14 -155 -3 -214 -4 -13 -2 -23 4 -23
6 0 16 32 23 71 24 134 -9 314 -84 464 -17 35 -25 61 -19 63 6 2 33 20 59 41
77 61 145 106 183 121 19 7 42 19 51 27 23 19 43 16 105 -14 60 -29 57 -21 55
-158 -2 -75 -21 -156 -52 -217 -23 -45 -35 -53 -55 -38 -11 10 -22 7 -54 -15
-22 -15 -37 -31 -34 -36 3 -5 1 -9 -4 -9 -5 0 -17 -15 -27 -34 -11 -19 -22
-33 -26 -30 -4 2 -11 -1 -15 -8 -12 -19 -12 -48 0 -55 6 -3 8 -3 5 1 -3 3 13
25 35 49 23 23 54 57 68 76 25 33 27 34 94 32 l69 -2 22 58 c46 123 57 175 57
288 0 61 -3 122 -7 138 -7 26 -9 27 -80 26 -39 -1 -89 -5 -109 -10z m144 -37
c22 -22 11 -292 -12 -292 -4 0 -4 20 0 44 3 24 6 78 5 121 -2 74 -4 80 -33
106 -19 17 -26 29 -19 32 16 6 48 0 59 -11z m-23 -347 c-6 -21 -17 -45 -25
-52 -18 -18 -18 -12 0 29 8 18 17 42 21 52 11 35 14 10 4 -29z m128 -321 c15
-40 -8 -29 -46 21 l-43 58 42 -33 c23 -18 44 -39 47 -46z"/>
<path d="M2338 2705 c-21 -19 -36 -35 -35 -35 2 0 -34 -37 -80 -83 -63 -63
-84 -91 -88 -117 l-6 -35 58 62 c187 198 225 243 207 243 -11 0 -36 -16 -56
-35z"/>
<path d="M2415 2703 c-47 -51 -174 -239 -210 -311 -62 -126 -37 -137 31 -14
21 37 41 70 46 73 6 3 10 10 11 15 1 16 51 97 70 113 9 8 17 19 17 24 0 5 11
23 25 41 14 18 25 39 25 47 0 8 5 20 12 27 7 7 9 12 5 12 -3 0 -18 -12 -32
-27z"/>
<path d="M1350 2506 c0 -39 -3 -45 -27 -54 -40 -13 -81 -59 -94 -101 -27 -89
34 -169 159 -209 103 -33 132 -80 68 -110 -39 -19 -102 -8 -181 32 l-65 33 0
-73 0 -73 54 -15 c30 -9 61 -16 70 -16 13 0 16 -11 16 -50 l0 -50 55 0 55 0 0
48 0 48 44 13 c55 16 85 47 97 101 22 96 -22 152 -161 209 -59 24 -84 40 -93
58 -10 22 -8 28 13 45 29 23 74 20 165 -10 l55 -19 0 63 c0 35 -4 66 -10 69
-5 3 -32 9 -60 12 l-50 6 0 43 0 44 -55 0 -55 0 0 -44z m82 -37 c15 -26 69
-57 90 -51 8 2 22 -37 16 -43 -2 -2 -32 2 -66 10 -34 8 -69 12 -79 9 -44 -14
-67 -31 -78 -58 -11 -25 -10 -34 3 -55 30 -47 38 -52 170 -101 40 -15 70 -56
76 -102 6 -53 -17 -90 -73 -116 -39 -18 -52 -30 -61 -57 -15 -46 -31 -44 -52
5 -12 29 -23 41 -45 45 -50 11 -70 23 -76 44 -4 16 0 21 14 21 10 0 19 -5 19
-10 0 -6 6 -10 13 -8 6 1 30 -4 51 -11 57 -20 136 -1 154 36 6 15 12 36 12 48
0 32 -58 80 -120 100 -30 10 -67 30 -82 45 -15 15 -29 25 -32 22 -6 -5 -16 17
-20 45 -8 50 51 142 91 143 6 0 17 16 24 35 16 43 29 44 51 4z"/>
<path d="M100 2322 c-50 -24 -68 -80 -43 -131 26 -53 51 -61 195 -61 144 0
128 10 147 -90 13 -73 140 -611 153 -655 25 -79 -15 -75 828 -75 472 0 758 4
781 10 44 12 46 15 136 253 120 316 131 347 124 347 -3 0 -28 -7 -56 -16 -27
-8 -80 -16 -116 -17 l-65 -2 -52 -135 c-28 -74 -60 -157 -70 -185 l-18 -50
-653 0 -654 0 -43 190 c-24 105 -59 267 -79 360 -53 245 -53 248 -95 262 -22
7 -102 12 -210 12 -147 1 -181 -2 -210 -17z m397 -28 c24 -7 47 -58 58 -129 3
-22 15 -78 26 -124 11 -47 22 -96 24 -111 2 -14 8 -44 14 -66 10 -38 47 -194
71 -301 21 -92 -38 -85 699 -85 622 -1 652 0 672 18 21 19 59 93 59 114 0 12
14 48 56 138 13 29 24 59 24 67 0 21 29 33 99 40 l63 6 -6 -28 c-4 -15 -20
-54 -35 -85 -16 -32 -24 -55 -19 -52 6 4 6 -1 0 -12 -6 -11 -23 -51 -38 -91
-16 -39 -32 -69 -36 -67 -4 3 -5 -2 -2 -11 4 -8 0 -23 -7 -32 -12 -14 -12 -16
1 -8 11 6 11 4 -2 -11 -9 -10 -19 -31 -23 -46 -4 -14 -16 -35 -27 -45 -19 -17
-60 -18 -781 -20 l-760 -3 -18 22 c-21 24 -36 72 -74 238 -15 63 -41 178 -60
255 -33 140 -42 181 -49 222 -5 34 -34 72 -59 78 -12 2 -75 6 -140 7 -129 3
-137 7 -137 65 0 54 28 62 220 62 91 1 175 -2 187 -5z"/>
<path d="M2446 2193 c-2 -3 -17 -6 -33 -7 -79 -8 -194 -30 -200 -39 -7 -12
151 -4 244 14 46 8 59 14 51 22 -11 12 -53 19 -62 10z"/>
<path d="M2450 2123 c-55 -21 -77 -24 -145 -20 -44 2 -89 8 -100 11 -18 7 -18
6 -2 -4 9 -6 15 -15 13 -19 -14 -21 155 -20 220 2 29 10 60 27 69 37 10 11 16
19 14 19 -2 -1 -33 -12 -69 -26z"/>
<path d="M780 1203 c-91 -33 -132 -85 -134 -167 -2 -165 218 -234 321 -100 21
29 25 44 25 99 0 56 -5 72 -28 102 -42 55 -129 86 -184 66z m111 -56 c68 -45
87 -138 39 -190 -11 -11 -20 -25 -20 -31 0 -5 -3 -6 -7 -3 -3 4 -12 2 -20 -5
-8 -6 -35 -12 -61 -12 -90 0 -150 65 -139 150 13 92 130 144 208 91z"/>
<path d="M1929 1201 c-82 -26 -119 -81 -119 -175 0 -64 1 -67 39 -105 67 -67
141 -75 228 -25 53 31 77 74 77 140 0 61 -35 124 -84 149 -37 19 -107 27 -141
16z m130 -58 c17 -10 31 -24 31 -30 0 -7 4 -13 9 -13 14 0 24 -56 16 -90 -8
-37 -38 -71 -82 -94 -39 -20 -64 -20 -109 -1 -33 13 -74 45 -58 45 3 0 1 6 -5
13 -11 14 -15 64 -9 102 14 81 122 116 207 68z"/>
<path d="M302 719 c-82 -16 -139 -66 -181 -159 -37 -81 -22 -170 41 -246 23
-28 59 -58 86 -71 l47 -23 1145 0 c1129 0 1146 1 1190 21 65 29 127 93 146
152 39 118 -22 253 -141 312 -39 20 -68 20 -1165 22 -619 0 -1144 -3 -1168 -8z
m2330 -58 c27 -14 46 -27 43 -29 -2 -3 6 -13 19 -23 71 -56 75 -201 8 -262
-19 -17 -20 -17 -19 8 0 14 -6 32 -13 41 -17 20 -19 95 -2 112 18 20 15 53
-10 79 -19 20 -31 23 -103 23 -49 0 -86 -5 -93 -12 -9 -9 -23 -9 -62 1 -51 13
-125 8 -136 -10 -3 -5 -10 -7 -15 -4 -5 4 -9 -1 -9 -9 0 -19 -24 -21 -42 -3
-27 28 -82 36 -231 36 -141 1 -155 -1 -175 -20 -12 -11 -22 -23 -22 -27 0 -4
-3 -50 -5 -102 -6 -113 4 -145 49 -159 35 -12 328 -13 321 -1 -2 4 7 6 20 4
14 -1 25 1 25 5 0 4 12 14 28 22 25 15 28 14 44 -2 9 -9 13 -20 10 -24 -4 -3
1 -3 11 1 10 3 17 1 17 -5 0 -8 21 -10 68 -5 101 9 152 7 152 -7 0 -3 17 -3
38 0 43 8 72 4 72 -10 0 -6 -4 -7 -10 -4 -5 3 -10 2 -10 -3 0 -6 -10 -11 -22
-12 -13 -1 -521 -4 -1130 -5 -732 -2 -1121 0 -1145 7 -53 14 -114 64 -139 112
-43 86 -25 183 48 253 67 65 -1 62 1243 60 l1130 -2 47 -24z m-647 -118 l0
-28 -62 3 c-58 3 -63 1 -63 -18 0 -18 6 -20 56 -20 54 0 55 0 52 -27 -3 -27
-5 -28 -55 -25 -51 3 -53 3 -53 -23 0 -26 1 -26 63 -23 61 3 62 3 65 -24 l3
-28 -95 0 -96 0 0 118 c0 65 2 121 4 123 2 2 44 3 93 2 l88 -1 0 -29z m200 -3
c13 -12 26 -32 28 -44 3 -20 4 -19 14 5 7 15 24 36 39 48 35 27 121 29 154 3
21 -17 21 -18 2 -35 -15 -14 -25 -15 -45 -8 -61 23 -114 -28 -88 -85 19 -41
91 -57 91 -19 0 9 -9 15 -25 15 -20 0 -25 5 -25 26 0 24 2 25 52 22 l53 -3 2
-52 c3 -63 -17 -83 -85 -83 -55 0 -97 22 -114 60 -16 38 -21 38 -35 0 -15 -39
-64 -60 -143 -60 l-60 0 0 118 c0 65 2 121 4 123 3 3 39 2 81 -2 59 -4 80 -11
100 -29z m461 27 c4 -3 4 -17 0 -31 -6 -23 -10 -25 -63 -23 -47 2 -58 -1 -61
-15 -3 -16 4 -18 52 -18 55 0 56 0 56 -30 l0 -29 -50 6 c-49 6 -50 5 -50 -20
0 -25 2 -26 58 -24 55 2 57 1 60 -25 l3 -28 -95 0 -96 0 0 118 c0 65 2 121 4
123 7 6 176 3 182 -4z"/>
<path d="M1416 606 l-28 -35 -35 19 c-30 16 -60 18 -235 19 -186 1 -203 -1
-234 -20 l-34 -21 -26 21 c-21 16 -41 21 -89 21 -78 0 -103 -21 -106 -93 -2
-27 -7 -51 -12 -54 -7 -4 -8 12 -4 41 6 44 4 50 -22 77 -33 33 -56 36 -89 13
-21 -14 -26 -14 -56 0 -47 22 -147 21 -176 -2 -20 -16 -21 -26 -21 -136 0
-132 9 -156 63 -156 16 0 38 -5 48 -10 13 -7 21 -7 25 0 3 5 21 10 39 10 18 0
45 9 59 20 l26 21 21 -21 c11 -11 25 -18 30 -15 6 4 10 2 10 -4 0 -7 75 -9
112 -2 16 2 69 65 74 88 9 33 24 28 24 -8 0 -20 10 -40 29 -60 35 -34 37 -34
76 -11 22 14 32 30 41 68 l12 49 1 -41 c1 -32 8 -47 30 -67 29 -26 33 -26 143
-23 62 2 115 5 118 6 3 1 8 2 13 1 4 0 7 4 7 11 0 6 3 8 7 5 3 -4 11 0 17 9
10 13 14 12 34 -9 20 -21 28 -23 58 -17 19 4 34 5 34 1 1 -3 7 5 14 18 12 21
12 31 0 63 -11 33 -11 40 1 44 8 3 19 3 24 -1 6 -3 19 -1 30 5 25 13 41 -8 18
-25 -35 -25 6 -84 76 -107 26 -8 50 -11 53 -7 3 5 9 7 13 4 14 -8 70 25 87 50
21 32 23 75 6 106 -12 21 -13 33 -4 59 10 26 9 36 -6 55 -31 41 -99 55 -160
34 -27 -9 -35 -8 -65 15 -19 14 -36 26 -38 26 -2 0 -17 -15 -33 -34z m66 -36
l24 -35 -29 -42 c-16 -24 -32 -43 -37 -43 -17 0 -21 19 -8 39 10 17 10 23 -5
33 -16 12 -16 15 0 50 10 21 21 36 25 35 4 -1 17 -18 30 -37z m-1021 -29 c21
-26 24 -52 9 -67 -8 -8 -6 -20 7 -41 14 -26 15 -35 5 -57 -16 -35 -48 -46
-133 -46 l-69 0 0 118 c0 65 2 121 4 123 3 2 39 2 81 -1 65 -4 80 -9 96 -29z
m109 -42 c0 -66 3 -82 20 -99 24 -24 30 -24 56 -6 16 12 20 29 22 98 4 83 4
84 30 82 27 -1 27 -2 30 -79 5 -124 -23 -165 -111 -165 -40 0 -53 5 -78 29
-28 28 -29 33 -29 119 0 49 2 91 4 93 2 2 16 5 30 5 26 2 26 2 26 -77z m234
69 c2 -2 13 -20 25 -41 l23 -38 26 38 c14 21 26 38 26 39 1 1 16 4 34 7 43 9
41 -2 -14 -84 -41 -60 -46 -72 -43 -113 4 -46 4 -46 -28 -46 -33 0 -33 0 -33
49 0 49 -18 92 -62 150 -27 36 -23 51 13 46 17 -2 32 -5 33 -7z m362 -1 c4 -3
3 -18 0 -32 -6 -25 -8 -26 -66 -19 -57 6 -60 5 -60 -15 0 -19 6 -21 56 -21 54
0 55 0 52 -27 -3 -27 -5 -28 -55 -25 -51 4 -53 3 -53 -21 0 -25 2 -25 63 -24
61 2 62 1 65 -25 l3 -28 -96 0 -96 0 2 112 c1 62 3 117 5 123 4 11 170 13 180
2z m111 3 c47 0 58 -4 85 -30 25 -26 29 -36 24 -63 -3 -18 -14 -37 -23 -44
-15 -11 -14 -16 10 -52 15 -23 27 -43 27 -46 0 -3 -15 -5 -34 -5 -30 0 -38 5
-57 40 -17 29 -29 40 -47 40 -19 0 -23 -5 -22 -27 3 -47 1 -53 -25 -53 l-25 0
0 126 c0 111 2 125 16 120 9 -3 40 -6 71 -6z m398 -12 c30 -14 31 -20 6 -42
-15 -14 -24 -15 -40 -7 -28 16 -61 14 -61 -4 0 -8 17 -19 40 -26 52 -16 80
-43 80 -79 0 -64 -98 -92 -169 -49 -34 20 -34 21 -14 40 18 19 21 19 57 4 34
-14 41 -15 53 -2 13 13 9 17 -36 32 -80 26 -102 74 -56 120 27 28 94 34 140
13z"/>
<path d="M350 500 c0 -15 7 -20 29 -20 34 0 51 18 30 31 -26 17 -59 10 -59
-11z"/>
<path d="M350 405 c0 -28 25 -34 61 -14 28 14 7 39 -32 39 -24 0 -29 -4 -29
-25z"/>
<path d="M1240 495 c0 -29 19 -40 55 -31 16 4 25 13 25 25 0 21 -19 31 -56 31
-19 0 -24 -5 -24 -25z"/>
<path d="M2069 513 c0 -4 -1 -35 -1 -68 l0 -60 29 3 c55 7 82 63 51 104 -14
18 -77 35 -79 21z"/>
</g>
</svg>
